<?xml version="1.0" standalone="no"?>
<!DOCTYPE svg PUBLIC "-//W3C//DTD SVG 1.1//EN" "http://www.w3.org/Graphics/SVG/1.1/DTD/svg11.dtd" >
<svg xmlns="http://www.w3.org/2000/svg">
<metadata></metadata>
<defs>
<font id="akzidenz-grotesk_bq_lightRg" horiz-adv-x="1067" >
<font-face units-per-em="2048" ascent="1638" descent="-410" />
<missing-glyph horiz-adv-x="528" />
<glyph horiz-adv-x="2048" />
<glyph horiz-adv-x="2048" />
<glyph unicode="&#xd;" horiz-adv-x="2048" />
<glyph unicode=" "  horiz-adv-x="528" />
<glyph unicode="&#x09;" horiz-adv-x="528" />
<glyph unicode="&#xa0;" horiz-adv-x="528" />
<glyph unicode="!" horiz-adv-x="425" d="M176 0v238h156v-238h-156zM188 629v829h131v-829l-18 -269h-96z" />
<glyph unicode="&#x22;" horiz-adv-x="731" d="M104 1522h170l-53 -596h-61zM457 1522h170l-54 -596h-61z" />
<glyph unicode="#" horiz-adv-x="1366" d="M86 530v111h358l27 199h-342v116h356l66 494h129l-70 -494h205l64 494h122l-67 -494h344v-116h-358l-27 -199h344v-111h-358l-72 -530h-127l78 530h-207l-78 -530h-119l74 530h-342zM565 641h207l27 199h-205z" />
<glyph unicode="$" horiz-adv-x="1236" d="M53 365l146 14q72 -158 227 -221q53 -23 117 -31v582q-408 109 -404 376q0 154 103 246q111 104 301 115v127h119v-127q197 -10 309 -146q70 -92 94 -188l-137 -14q-74 203 -266 219v-506q199 -59 274 -98q195 -104 194 -297q1 -229 -206 -346q-119 -66 -262 -70v-188 h-119v188q-242 25 -385 193q-61 70 -105 172zM274 1092q0 -96 84 -160q80 -63 185 -84v473q-59 0 -119 -23q-150 -59 -150 -206zM662 123q90 0 159 31q170 74 170 249q0 105 -86 166q-84 63 -243 101v-547z" />
<glyph unicode="%" horiz-adv-x="1792" d="M61 993q0 285 142 406q74 63 182 63q94 0 158 -45q168 -117 159 -440q0 -215 -100 -344q-86 -106 -221 -107q-86 0 -150 41q-170 111 -170 426zM166 991q0 -193 65 -291q51 -82 152 -82q209 2 215 361q2 183 -55 289t-160 104q-106 0 -166 -112q-51 -98 -51 -269z M500 -43l719 1577l86 -39l-723 -1575zM1085 449q0 262 119 387q78 84 205 84q131 -2 209 -91q109 -127 108 -395q-16 -276 -139 -385q-76 -66 -182 -65q-88 0 -154 45q-166 109 -166 420zM1190 453q0 -98 22 -189q29 -113 95 -160q41 -29 100 -28q209 0 215 360 q2 160 -43 264q-57 131 -172 131q-55 0 -107 -40q-115 -96 -110 -338z" />
<glyph unicode="&#x26;" horiz-adv-x="1323" d="M113 385q0 225 202 385q29 25 80 57l80 54q-117 154 -117 309q0 127 80 205q78 78 207 78q123 0 201 -66q82 -68 82 -188q0 -98 -62 -189q-59 -88 -219 -192l166 -250q94 -139 148 -203q47 127 51 262h129q-2 -145 -60 -276q-16 -39 -43 -90l52 -64q86 -106 180 -111 v-124q-90 2 -156 43q-29 16 -63 47q16 -16 -90 98q-47 -63 -119 -109q-119 -78 -279 -77q-168 0 -287 86q-164 123 -163 315zM254 391q0 -76 31 -131q90 -160 282 -158q193 0 324 160q-74 102 -158 225q-168 256 -190 287l-70 -45q-219 -147 -219 -338zM483 1190 q0 -80 99 -244q137 63 194 166q25 49 25 98t-29 90q-41 57 -125 58q-164 0 -164 -168z" />
<glyph unicode="'" horiz-adv-x="378" d="M104 1522h170l-53 -596h-61z" />
<glyph unicode="(" horiz-adv-x="630" d="M88 666q0 207 68 409q78 231 233 395q78 80 191 162l49 -67q-119 -102 -187 -193q-205 -274 -204 -698q0 -332 145 -619q57 -111 125 -190q55 -68 129 -121l-51 -76q-498 379 -498 998z" />
<glyph unicode=")" horiz-adv-x="641" d="M16 1565l52 75q496 -383 495 -995q1 -205 -69 -414q-76 -227 -236 -395q-70 -74 -190 -160l-50 66q125 109 187 192q207 276 207 703q0 334 -144 616q-55 104 -123 191q-51 59 -129 121z" />
<glyph unicode="*" horiz-adv-x="731" d="M68 1202l28 88l217 -57v223h99v-227l221 74l31 -84l-226 -80l137 -187l-75 -55l-140 184l-124 -184l-78 55l127 189z" />
<glyph unicode="+" horiz-adv-x="1482" d="M193 539v123h487v485h123v-485h487v-123h-487v-488h-123v488h-487z" />
<glyph unicode="," horiz-adv-x="342" d="M90 0v238h162v-201q0 -221 -94 -361l-68 48q78 125 78 276h-78z" />
<glyph unicode="-" horiz-adv-x="698" d="M78 541v123h543v-123h-543z" />
<glyph unicode="." horiz-adv-x="342" d="M90 0v238h162v-238h-162z" />
<glyph unicode="/" horiz-adv-x="980" d="M20 0l789 1446h152l-785 -1446h-156z" />
<glyph unicode="0" horiz-adv-x="1193" d="M88 721q0 455 221 647q117 106 289 107q213 0 340 -156q166 -203 166 -627q-17 -400 -193 -586q-127 -133 -319 -133q-141 0 -242 70q-262 180 -262 678zM225 727q0 -254 66 -414q29 -74 80 -129q84 -96 225 -96q145 0 233 105q131 154 138 503q0 297 -82 465 q-104 201 -289 201q-119 0 -207 -88q-164 -164 -164 -547z" />
<glyph unicode="1" horiz-adv-x="1193" d="M328 1116l2 111q66 2 123 18q139 43 139 180v21h125v-1446h-125l-2 1174q-25 -20 -86 -39q-74 -18 -139 -19h-37z" />
<glyph unicode="2" horiz-adv-x="1193" d="M121 1053q0 92 35 178q109 244 438 244q330 0 446 -248q45 -100 45 -213q0 -162 -98 -318q-143 -227 -487 -463q-98 -72 -189 -120h725v-113h-913v113l160 102q123 86 249 186q225 199 232 207q186 195 186 414q0 96 -41 176q-90 168 -317 168q-221 0 -313 -174 q-39 -72 -39 -152q0 -129 100 -245l-168 20q-51 129 -51 238z" />
<glyph unicode="3" horiz-adv-x="1193" d="M88 414l137 45q0 -80 15 -135q63 -233 352 -234q190 0 278 107q66 80 66 196q0 158 -100 238q-82 63 -279 63h-201v113h172q61 0 136 8q154 23 210 117q39 63 39 145q0 70 -28 127q-80 162 -291 162q-152 0 -244 -90q-66 -66 -86 -154q-6 -25 -6 -78l-143 39 q72 270 262 351q98 41 217 41q195 0 319 -103q129 -104 129 -299q0 -213 -163 -282q-49 -20 -152 -35q94 -4 164 -37q182 -84 182 -316q0 -106 -43 -194q-115 -236 -440 -236q-295 0 -424 203q-63 100 -78 238z" />
<glyph unicode="4" horiz-adv-x="1193" d="M115 362v105l635 979h135v-971h225v-113h-225v-362h-125v362h-645zM256 475h504v768z" />
<glyph unicode="5" horiz-adv-x="1193" d="M109 381l133 39q0 -37 6 -68q27 -117 92 -180q92 -86 244 -86q88 0 159 33q195 92 195 373q0 231 -139 335q-88 66 -203 66q-119 0 -205 -80q-31 -25 -55 -61q-35 -57 -53 -136l-105 13l25 817h764v-121h-645l-29 -498q23 47 80 99q100 76 241 75q211 0 342 -151 q117 -135 117 -354q1 -99 -22 -177q-68 -246 -293 -321q-74 -27 -170 -27q-180 0 -299 84q-150 111 -180 326z" />
<glyph unicode="6" horiz-adv-x="1193" d="M117 678q0 414 155 612q143 184 390 185q90 0 169 -27q193 -66 265 -293l-135 -47q0 55 -31 117q-70 135 -264 135q-174 0 -275 -115q-90 -106 -125 -317q-14 -86 -18 -158q55 86 155 143q100 55 238 56q178 0 301 -99q55 -45 90 -104q78 -127 78 -299q0 -141 -57 -254 q-125 -240 -432 -240q-178 0 -297 95q-207 164 -207 610zM254 510q0 -94 39 -191q92 -233 332 -233q152 0 237 86q117 113 113 309q0 86 -25 156q-72 221 -319 221q-59 0 -129 -20q-170 -53 -226 -205q-23 -53 -22 -123z" />
<glyph unicode="7" horiz-adv-x="1193" d="M129 1001v445h918v-121q-145 -199 -218 -334q-223 -410 -288 -991h-138q33 520 316 1004q70 121 211 321h-684v-324h-117z" />
<glyph unicode="8" horiz-adv-x="1193" d="M92 403q0 121 70 215q82 115 227 152q-39 10 -82 39q-160 106 -160 285q0 88 39 166q109 215 416 215q291 0 406 -187q53 -84 53 -188q0 -127 -66 -211q-20 -29 -65 -62q-59 -43 -119 -57q49 -14 80 -31q211 -117 211 -344q0 -96 -43 -182q-123 -240 -459 -240 q-311 0 -444 209q-63 98 -64 221zM229 403q0 -145 109 -231q100 -82 260 -82q92 0 156 23q209 72 213 282q2 78 -35 148q-92 166 -334 166q-150 0 -252 -74q-117 -84 -117 -232zM276 1087q0 -104 80 -178q94 -88 248 -88q70 0 125 17q203 57 201 258q-2 104 -68 176 q-86 90 -260 90q-172 0 -258 -96q-68 -76 -68 -179z" />
<glyph unicode="9" horiz-adv-x="1193" d="M82 973q0 121 39 215q111 287 442 287q264 0 398 -193q119 -174 118 -518q0 -246 -57 -426q-119 -365 -490 -365q-332 0 -430 320l142 51q18 -119 63 -170q78 -88 232 -88q152 0 243 80q47 37 82 104q70 135 84 432q-53 -104 -160 -165q-109 -57 -241 -58q-129 0 -236 60 q-229 127 -229 434zM219 975q0 -166 74 -262q90 -119 274 -119q104 0 174 35q127 61 174 178q23 53 23 129q2 52 -12 115q-23 106 -86 186q-102 131 -279 131q-158 0 -248 -102q-94 -102 -94 -291z" />
<glyph unicode=":" horiz-adv-x="425" d="M176 0v238h162v-238h-162zM176 721v237h162v-237h-162z" />
<glyph unicode=";" horiz-adv-x="425" d="M176 0v238h162v-236q0 -180 -96 -326l-66 48q78 125 78 276h-78zM176 721v237h162v-237h-162z" />
<glyph unicode="&#x3c;" horiz-adv-x="1482" d="M233 524v140l955 489v-131l-838 -426l838 -422v-133z" />
<glyph unicode="=" horiz-adv-x="1482" d="M203 354v119h1077v-119h-1077zM203 715v121h1077v-121h-1077z" />
<glyph unicode="&#x3e;" horiz-adv-x="1482" d="M297 35v133l838 426l-838 422v131l952 -483v-138z" />
<glyph unicode="?" horiz-adv-x="980" d="M137 1085q0 102 35 179q94 207 365 206q199 0 315 -135q94 -109 94 -260q0 -131 -63 -231q-43 -70 -195 -207q-86 -84 -102 -113q-23 -45 -23 -137v-41h-127v72q0 115 37 174q18 29 51 61q0 2 138 131q154 150 153 291q0 39 -14 88q-61 186 -269 187q-59 0 -110 -19 q-160 -61 -160 -258q0 -104 51 -199l-153 46q-23 104 -23 165zM422 0v238h160v-238h-160z" />
<glyph unicode="@" horiz-adv-x="1835" d="M141 477q0 397 273 686q276 295 671 295q274 0 441 -155q168 -160 168 -435q0 -129 -39 -268q-49 -164 -154 -293q-129 -160 -274 -160q-168 0 -164 191q-129 -188 -309 -188q-131 0 -201 102q-59 86 -59 223q0 342 233 510q98 70 195 70q172 0 243 -195l33 148h121 l-66 -299q-61 -274 -61 -363q0 -100 76 -100q49 0 114 61q217 195 217 559q0 236 -143 371q-141 131 -379 131q-350 0 -600 -270q-244 -264 -244 -619q0 -299 199 -473q190 -168 494 -168q395 0 692 297l55 -65q-350 -324 -747 -324q-336 0 -555 197q-229 203 -230 534z M633 483q0 -94 41 -153q49 -70 137 -70q141 0 233 166q78 141 78 295q0 93 -47 156q-51 70 -141 69q-137 0 -225 -170q-76 -143 -76 -293z" />
<glyph unicode="A" horiz-adv-x="1323" d="M20 0l590 1446h115l575 -1446h-149l-166 436h-647l-166 -436h-152zM383 547h561l-278 739z" />
<glyph unicode="B" horiz-adv-x="1366" d="M166 0v1446h600q61 0 94 -2q207 -8 307 -144q68 -94 68 -215q-8 -176 -129 -256q-68 -45 -131 -51q307 -61 307 -370q0 -251 -197 -353q-104 -55 -405 -55h-514zM303 125h369q217 0 268 12q205 45 205 266q-1 173 -146 259q-90 53 -294 53h-402v-590zM303 834h408 q256 0 331 98q49 63 50 155q0 85 -43 142q-70 94 -316 94h-430v-489z" />
<glyph unicode="C" horiz-adv-x="1366" d="M102 715q0 375 179 581q74 88 188 142q104 45 250 45q133 0 237 -37q209 -72 324 -338l-139 -70q-14 74 -60 148q-113 176 -354 176q-139 0 -223 -47q-98 -53 -166 -174q-92 -164 -92 -410q0 -141 26 -258q84 -387 478 -387q201 0 313 147q57 76 78 160l129 -78 q-86 -186 -228 -276q-121 -76 -309 -76q-311 0 -473 207q-158 197 -158 545z" />
<glyph unicode="D" horiz-adv-x="1409" d="M166 0v1446h387q100 0 152 -2q268 -10 407 -158q195 -205 195 -559q-1 -348 -191 -557q-84 -92 -186 -131t-387 -39h-377zM305 123h217q291 0 385 45q86 39 146 133q115 162 114 422q0 291 -143 461q-63 78 -147 108q-80 29 -318 29h-254v-1198z" />
<glyph unicode="E" horiz-adv-x="1236" d="M166 0v1446h944v-125h-807v-516h731v-127h-731v-551h858v-127h-995z" />
<glyph unicode="F" horiz-adv-x="1150" d="M166 0v1446h946v-121h-813v-489h729v-119h-729v-717h-133z" />
<glyph unicode="G" horiz-adv-x="1449" d="M102 713q0 487 314 682q141 88 336 88q373 0 532 -367l-129 -69q-47 172 -154 249q-97 72 -229 72h-14q-111 0 -203 -43q-307 -141 -307 -606q0 -473 297 -600q76 -33 180 -33q184 0 295 117q135 147 135 428h-532v125h651v-756h-119v242q-41 -98 -111 -164 q-125 -115 -325 -115q-158 0 -285 68q-332 178 -332 682z" />
<glyph unicode="H" horiz-adv-x="1492" d="M166 0v1446h135v-645h889v645h137v-1446h-137v678h-889v-678h-135z" />
<glyph unicode="I" horiz-adv-x="468" d="M166 0v1446h137v-1446h-137z" />
<glyph unicode="J" horiz-adv-x="1024" d="M27 397l145 33q-2 -20 -2 -63q0 -139 66 -205q76 -74 231 -74q150 0 211 98q45 70 45 281v979h135v-848q0 -162 -4 -242q-8 -188 -94 -280q-47 -51 -119 -80t-186 -29q-90 0 -152 17q-188 53 -248 223q-10 33 -28 190z" />
<glyph unicode="K" horiz-adv-x="1366" d="M166 0v1446h139v-807l787 807h188l-565 -574l614 -872h-168l-540 782l-316 -317v-465h-139z" />
<glyph unicode="L" horiz-adv-x="1150" d="M166 0v1446h139v-1319h799v-127h-938z" />
<glyph unicode="M" horiz-adv-x="1622" d="M166 0v1446h162l489 -1227l469 1227h170v-1446h-135l10 1229l-471 -1229h-94l-481 1229l16 -1229h-135z" />
<glyph unicode="N" horiz-adv-x="1449" d="M166 0v1446h135l858 -1237l-10 1237h135v-1446h-135l-848 1249v-1249h-135z" />
<glyph unicode="O" horiz-adv-x="1449" d="M102 727q0 367 193 576q90 96 199 139q100 41 235 41q319 0 483 -242q137 -199 136 -510q0 -338 -164 -555q-96 -123 -228 -174q-106 -39 -227 -39q-258 0 -420 168q-207 215 -207 596zM248 723q0 -350 178 -522q121 -115 297 -115q195 0 311 131q168 182 168 514 q1 19 1 38q0 267 -146 445q-61 70 -127 105q-86 45 -201 45q-246 0 -375 -209q-106 -174 -106 -432z" />
<glyph unicode="P" horiz-adv-x="1280" d="M166 0v1446h496q190 0 253 -6q164 -12 246 -109q94 -109 94 -280q1 -154 -81 -263q-39 -51 -107 -88q-102 -49 -451 -49h-319v-651h-131zM297 772l496 2q199 4 270 92q59 72 59 187q0 96 -41 164q-66 109 -282 112l-76 2h-426v-559z" />
<glyph unicode="Q" horiz-adv-x="1449" d="M102 709q0 360 185 573q53 59 110 98q145 102 344 103q229 0 379 -135q231 -209 232 -609q0 -287 -123 -499l194 -181l-86 -92l-182 168q-172 -172 -426 -172q-233 0 -387 133q-240 207 -240 613zM246 713q0 -266 114 -441q33 -49 82 -92q111 -100 287 -100 q233 0 361 180q119 168 122 449q1 286 -116 462q-66 102 -164 152q-86 41 -197 41q-131 0 -227 -57q-262 -158 -262 -594z" />
<glyph unicode="R" horiz-adv-x="1323" d="M166 0v1446h407q203 0 244 -2q258 -18 359 -193q55 -100 55 -219q0 -279 -252 -360q-66 -23 -176 -31l469 -641h-172l-457 641h-338v-641h-139zM305 760h340q76 0 115 2q213 8 284 106q51 70 52 170q0 92 -43 162q-74 123 -301 123h-447v-563z" />
<glyph unicode="S" horiz-adv-x="1236" d="M100 365l138 71q4 -102 32 -162q86 -190 369 -190q92 0 164 20q235 72 235 285q0 80 -39 141q-59 94 -299 158q-240 61 -317 98q-209 104 -209 322q0 125 70 215q125 160 407 160q272 0 414 -168q51 -61 84 -150l-127 -67q-25 78 -59 125q-102 147 -316 147 q-180 0 -272 -92q-68 -68 -68 -166q0 -76 43 -135q61 -82 264 -135q342 -92 428 -164q135 -111 136 -283q-1 -200 -179 -329q-147 -102 -360 -103q-455 0 -539 402z" />
<glyph unicode="T" horiz-adv-x="1110" d="M31 1325v121h1048v-121h-456v-1325h-138v1325h-454z" />
<glyph unicode="U" horiz-adv-x="1409" d="M162 776v670h135v-938q0 -152 43 -238q39 -78 125 -125q102 -55 240 -55q217 0 319 121q82 98 82 344v891h137v-658q0 -199 -4 -299q-8 -240 -113 -364q-139 -162 -419 -162q-227 0 -371 113q-63 51 -105 119q-69 121 -69 568v13z" />
<glyph unicode="V" horiz-adv-x="1236" d="M20 1446h152l444 -1258l455 1258h146l-543 -1446h-123z" />
<glyph unicode="W" horiz-adv-x="1792" d="M20 1446h148l340 -1200l344 1200h94l357 -1200l329 1200h137l-411 -1446h-111l-346 1169l-344 -1169h-108z" />
<glyph unicode="X" horiz-adv-x="1366" d="M43 0l549 778l-473 668h174l393 -584l401 584h166l-475 -668l545 -778h-170l-467 692l-485 -692h-158z" />
<glyph unicode="Y" horiz-adv-x="1280" d="M20 1446h162l447 -719l465 719h166l-566 -848v-598h-135v598z" />
<glyph unicode="Z" horiz-adv-x="1193" d="M59 0v90l891 1233h-837v123h1022v-94l-881 -1229h868v-123h-1063z" />
<glyph unicode="[" horiz-adv-x="555" d="M152 -295v1890h348v-104h-224v-1684h224v-102h-348z" />
<glyph unicode="\" horiz-adv-x="980" d="M20 1446h156l785 -1446h-152z" />
<glyph unicode="]" horiz-adv-x="555" d="M53 -190h223v1685h-223v102h348v-1890h-348v103z" />
<glyph unicode="^" horiz-adv-x="1482" d="M262 592l408 854h139l412 -854h-131l-349 737l-348 -737h-131z" />
<glyph unicode="_" horiz-adv-x="1024" d="M-20 -301h1064v-121h-1064v121z" />
<glyph unicode="`" horiz-adv-x="555" d="M47 1430h229l232 -287h-109z" />
<glyph unicode="a" horiz-adv-x="1024" d="M92 246q0 90 53 153q68 82 301 150q154 41 185 47l114 25v51q0 63 -10 94q-42 129 -218 129h-5q-166 0 -221 -84q-33 -51 -37 -152l-133 23q23 115 57 170q99 149 323 149h3q211 0 299 -104q59 -70 59 -276v-314q0 -162 33 -188q29 -23 113 -23v-96q-168 0 -220 51 q-39 39 -43 127q-20 -49 -51 -84q-97 -114 -292 -114h-3q-150 0 -233 83q-74 74 -74 183zM209 248q0 -33 18 -70q47 -92 179 -92q94 0 182 49q96 53 131 135q26 57 26 164v8v74l-61 -16q-367 -98 -414 -133q-61 -45 -61 -119z" />
<glyph unicode="b" d="M154 0v1446h116v-635q2 6 23 41q96 145 276 145q147 0 252 -98q156 -150 156 -426q0 -217 -98 -350q-37 -51 -82 -80q-90 -66 -222 -66q-106 0 -190 56q-41 23 -76 73q-23 29 -39 68v-174h-116zM270 492q0 -102 23 -185q61 -221 268 -221q145 0 219 109q66 100 68 274 q-1 100 -21 178q-61 242 -276 242q-84 0 -145 -41q-135 -88 -136 -356z" />
<glyph unicode="c" horiz-adv-x="980" d="M90 481q0 111 31 203q100 317 438 317q180 0 285 -108q59 -61 86 -137l-113 -27q-66 164 -264 164q-119 0 -203 -72q-129 -111 -129 -334q0 -193 92 -305q41 -45 97 -71q57 -29 133 -29q176 0 264 164l123 -29q-43 -90 -107 -145q-106 -96 -284 -97q-182 0 -299 111 q-150 141 -150 395z" />
<glyph unicode="d" d="M90 489q0 315 211 449q92 59 211 59q133 0 217 -77q43 -41 66 -99v625h118v-1446h-118v176q-70 -199 -301 -199q-113 0 -203 62q-201 131 -201 450zM221 489q0 -119 35 -210q70 -186 256 -187q117 0 190 74q90 94 95 315v9q0 264 -117 348q-72 49 -162 49q-74 0 -127 -29 q-170 -92 -170 -369z" />
<glyph unicode="e" d="M90 498q0 113 31 198q47 139 160 222q114 83 257 83h3q190 0 313 -139q127 -143 127 -344v-31h-758v-16q0 -82 19 -147q62 -238 309 -238h4q211 0 313 205l113 -33q-43 -86 -76 -127q-131 -156 -348 -156q-129 0 -225 52q-242 125 -242 471zM225 588h617 q-18 168 -123 248q-76 57 -180 57q-190 0 -277 -170q-27 -57 -37 -135z" />
<glyph unicode="f" horiz-adv-x="641" d="M47 874v103h215v186q0 147 12 189q41 123 205 123q47 0 125 -15v-119q-66 27 -117 27q-49 0 -71 -27q-33 -33 -33 -167v-197h221v-103h-221v-874h-121v874h-215z" />
<glyph unicode="g" horiz-adv-x="1110" d="M90 494q0 322 207 446q94 57 219 57q141 0 236 -77q49 -39 69 -80q12 -23 17 -43v180h116v-873q0 -184 -4 -235q-10 -172 -96 -258q-106 -111 -334 -111q-281 0 -379 187q-35 66 -43 161l127 23q18 -119 64 -174q74 -92 248 -92q201 0 264 133q29 61 35 295l2 155 q-14 -43 -21 -55q-83 -153 -300 -153h-3q-111 0 -199 49q-225 125 -225 465zM213 496q0 -182 74 -289q47 -70 121 -98q51 -20 116 -21q113 0 187 53q119 86 123 338q0 211 -68 307q-76 106 -236 107q-66 0 -112 -19q-205 -80 -205 -378z" />
<glyph unicode="h" d="M154 0v1446h122v-625q6 20 33 53q90 123 271 123q178 0 268 -120q63 -84 63 -326v-551h-118v580l-2 47q-4 186 -113 237q-51 23 -115 23q-172 0 -246 -137q-41 -82 -41 -328v-422h-122z" />
<glyph unicode="i" horiz-adv-x="425" d="M154 0v977h118v-977h-118zM154 1206v187h118v-187h-118z" />
<glyph unicode="j" horiz-adv-x="425" d="M-98 -483l2 114l18 -12q70 -37 141 -37q51 0 72 29q12 16 12 39l7 352v975h118v-858q0 -227 -2 -342q0 -164 -30 -219q-45 -82 -162 -82q-96 0 -176 41zM154 1206v187h118v-187h-118z" />
<glyph unicode="k" horiz-adv-x="1024" d="M154 0v1446h118v-983l549 514h152l-408 -389l436 -588h-147l-373 506l-209 -199v-307h-118z" />
<glyph unicode="l" horiz-adv-x="425" d="M152 0v1446h122v-1446h-122z" />
<glyph unicode="m" horiz-adv-x="1579" d="M154 0v977h120v-203q6 41 27 78q78 145 264 145q188 0 248 -147q16 -39 21 -96q16 61 38 98q78 145 267 145q109 0 176 -49q78 -53 98 -170q12 -70 12 -297v-481h-120v530q0 164 -7 201q-10 82 -61 121q-47 35 -121 35q-156 0 -229 -158q-39 -82 -39 -321v-408h-119v543 q0 203 -31 260q-47 84 -157 84q-145 0 -217 -131q-49 -92 -50 -363v-393h-120z" />
<glyph unicode="n" d="M154 0v977h120v-174q20 61 70 108q90 86 238 86q221 0 297 -168q34 -72 34 -307v-14v-508h-120v508q0 209 -23 266q-23 55 -74 84q-51 31 -133 31q-72 0 -129 -27q-115 -55 -147 -186q-12 -57 -13 -248v-428h-120z" />
<glyph unicode="o" d="M90 477q0 133 45 248q106 276 402 276q170 0 286 -108q150 -143 154 -399q0 -111 -27 -197q-100 -322 -422 -322q-213 0 -338 164q-100 139 -100 338zM219 477q0 -238 129 -338q72 -57 182 -57q129 0 211 84q104 104 107 315v9q0 212 -96 319q-82 90 -217 90 q-100 0 -177 -55q-139 -104 -139 -367z" />
<glyph unicode="p" d="M154 -518v1495h118v-160q18 41 37 64q85 116 255 116h3q119 0 203 -51q207 -131 207 -461q-1 -82 -21 -168q-88 -340 -389 -340q-182 0 -268 136q-12 16 -27 51v-682h-118zM272 502q-1 -17 -1 -33q0 -229 108 -317q68 -57 170 -58q156 0 235 133q68 111 68 275 q0 90 -27 172q-68 213 -278 213q-72 0 -127 -31q-102 -57 -133 -203q-10 -51 -15 -151z" />
<glyph unicode="q" horiz-adv-x="1024" d="M90 496q0 264 141 397q111 104 269 104q170 0 260 -110q20 -27 35 -66v156h116v-1495h-116v686q-16 -37 -37 -68q-92 -123 -262 -123q-109 0 -201 60q-205 133 -205 459zM215 500q0 -80 16 -146q66 -264 289 -264q92 0 154 51q119 90 123 346q0 254 -115 344 q-72 55 -166 56q-143 0 -229 -117q-72 -102 -72 -270z" />
<glyph unicode="r" horiz-adv-x="641" d="M154 0v977h120v-156q10 25 27 49q43 66 115 97q51 24 132 24h7q37 0 72 -4l-2 -108q-37 6 -76 6q-227 0 -264 -232q-10 -63 -11 -231v-422h-120z" />
<glyph unicode="s" horiz-adv-x="937" d="M70 238l118 41q16 -70 74 -121q78 -72 199 -72q117 0 180 49q70 53 70 141q0 47 -27 86q-43 59 -184 91q-268 63 -318 122q-51 63 -51 142v12q0 117 84 191q87 81 262 81h4q150 0 240 -63q82 -57 106 -158l-114 -30q-29 145 -238 145q-106 0 -160 -37q-23 -12 -43 -43 q-23 -39 -22 -84q0 -117 205 -158l102 -20q158 -33 223 -127q47 -63 47 -150q1 -72 -30 -131q-90 -170 -334 -170q-213 0 -328 148q-33 41 -65 115z" />
<glyph unicode="t" horiz-adv-x="598" d="M31 874v103h205v416h116v-416h215v-103h-215v-643v-13q0 -130 80 -130q49 0 135 62v-123q-66 -45 -155 -45q-23 0 -33 2q-100 8 -129 86q-14 37 -14 194v610h-205z" />
<glyph unicode="u" d="M154 498v479h122v-506q0 -174 17 -238q39 -143 203 -143q152 0 231 109q66 90 66 350v428h120v-977h-120v176q-20 -45 -39 -72q-92 -127 -273 -127q-59 0 -114 19q-139 45 -187 188q-26 85 -26 298v16z" />
<glyph unicode="v" horiz-adv-x="854" d="M20 977h121l271 -795l301 795h118l-374 -977h-99z" />
<glyph unicode="w" horiz-adv-x="1409" d="M43 977h117l262 -789l240 789h102l242 -789l243 789h117l-309 -977h-101l-241 805l-240 -805h-102z" />
<glyph unicode="x" horiz-adv-x="937" d="M43 0l358 508l-329 469h141l256 -373l264 373h129l-327 -469l358 -508h-137l-287 416l-297 -416h-129z" />
<glyph unicode="y" horiz-adv-x="894" d="M23 -334q68 -47 127 -47q47 0 75 35q18 25 56 113l38 92l52 141l-338 977h117l284 -832l318 832h122l-440 -1118q-86 -217 -117 -265q-61 -90 -165 -90q-74 0 -129 39v123z" />
<glyph unicode="z" horiz-adv-x="811" d="M57 0v76l529 796h-484v105h654v-72l-529 -796h543v-109h-713z" />
<glyph unicode="{" horiz-adv-x="548" d="M39 598v104q76 8 115 31q59 33 59 187l-2 352q0 117 14 172q37 160 238 160h59v-101h-35q-84 0 -114 -33q-18 -18 -25 -45q-10 -39 -10 -143v-356q0 -127 -33 -183q-33 -55 -133 -94q61 -18 96 -49q70 -63 70 -225v-357q0 -104 10 -143q20 -78 139 -78h35v-100l-59 2 q-137 6 -193 72q-33 39 -45 88q-14 63 -14 170l2 352q0 115 -20 149q-31 55 -154 68z" />
<glyph unicode="|" horiz-adv-x="468" d="M170 -293v1886h125v-1886h-125z" />
<glyph unicode="}" horiz-adv-x="548" d="M25 -203h36q82 0 113 33q18 18 25 45q10 39 10 143v357q0 127 33 182t133 94q-61 18 -94 49q-72 63 -72 226v354q0 106 -10 145q-20 78 -138 78h-36v101l59 -2q137 -6 192 -72q31 -35 46 -88q14 -53 14 -170l-2 -352q0 -113 20 -150q33 -59 154 -68v-104q-76 -8 -115 -31 q-59 -35 -59 -186l2 -352q0 -117 -14 -172q-41 -160 -238 -160h-59v100z" />
<glyph unicode="~" horiz-adv-x="1482" d="M154 545q57 82 108 127q92 80 213 80q39 0 86 -11q57 -14 197 -75l84 -37q119 -51 162 -51q72 0 135 47q45 33 110 110l82 -84q-80 -98 -147 -143q-92 -59 -191 -59q-63 0 -133 28q-74 29 -110 47l-74 37q-123 61 -213 62q-37 0 -68 -13q-35 -14 -139 -127l-20 -22z" />
<glyph unicode="&#xa2;" horiz-adv-x="980" d="M90 492q2 236 135 374q109 111 267 131v191h102v-189q199 0 307 -178q8 -14 29 -65l-113 -29q-49 131 -223 164v-805q133 25 213 160l123 -27q-18 -43 -43 -78q-104 -145 -293 -164v-208h-102v208q-207 20 -314 181q-90 137 -88 334zM221 494q0 -244 131 -349 q43 -35 140 -59v801q-266 -55 -271 -393z" />
<glyph unicode="&#xa3;" horiz-adv-x="1236" d="M86 154q0 59 45 102q53 53 156 53q123 0 225 -57q39 86 39 149q0 94 -82 177h-270v106h190l-41 37q-61 55 -123 137q-29 39 -49 82q-31 61 -31 137q0 100 56 180q125 188 401 189q205 0 334 -109q53 -45 86 -106t47 -172l-135 -27q-4 78 -25 125q-78 166 -311 166 q-63 0 -119 -16q-193 -57 -192 -228q0 -41 12 -75q23 -61 78 -125q35 -37 72 -72q94 -94 118 -123h312v-106h-248q55 -86 55 -185q0 -102 -53 -180q74 -41 153 -72q53 -27 107 -26q49 0 78 28q47 47 51 242l135 -14q-33 -236 -65 -281q-66 -96 -209 -96q-98 0 -316 108 q-111 -113 -264 -112q-113 0 -170 55q-47 43 -47 109zM193 150q0 -16 8 -27q23 -33 90 -33q111 0 178 62q-82 51 -182 51q-39 0 -56 -6q-39 -16 -38 -47z" />
<glyph unicode="&#xa5;" horiz-adv-x="1280" d="M20 1446h162l447 -713l465 713h166l-420 -629h321v-115h-397l-70 -108h467v-115h-467v-479h-135v479h-440v115h440l-65 108h-375v115h301z" />
<glyph unicode="&#xa8;" horiz-adv-x="555" d="M39 1192v188h125v-188h-125zM391 1192v188h125v-188h-125z" />
<glyph unicode="&#xa9;" horiz-adv-x="1705" d="M125 723q0 309 211 518q211 211 520 211q301 0 514 -211t213 -508q0 -311 -211 -526q-211 -213 -518 -213t-518 211t-211 518zM190 721q0 -274 195 -469q193 -193 469 -193q274 0 469 193q193 195 193 469q-1 280 -191 473t-469 192q-279 0 -471 -192 q-195 -195 -195 -473zM455 707q0 219 116 356q119 137 308 137q281 0 354 -282l-111 -25q-61 205 -254 205q-139 0 -217 -101q-78 -100 -78 -280q0 -174 78 -273q78 -96 217 -96q213 0 265 230l108 -13q-74 -322 -381 -321q-184 0 -295 127t-110 336z" />
<glyph unicode="&#xab;" horiz-adv-x="768" d="M78 633l241 379l99 -62l-205 -317l205 -289l-99 -63zM354 633l244 379l96 -62l-202 -317l202 -289l-96 -63z" />
<glyph unicode="&#xad;" horiz-adv-x="698" d="M78 541v123h543v-123h-543z" />
<glyph unicode="&#xae;" horiz-adv-x="1705" d="M125 723q0 309 211 518q211 211 520 211q301 0 514 -211t213 -508q0 -311 -211 -526q-211 -213 -518 -213t-518 211t-211 518zM190 721q0 -274 195 -469q193 -193 469 -193q274 0 469 193q193 195 193 469q-1 280 -191 473t-469 192q-279 0 -471 -192 q-195 -195 -195 -473zM584 262v922h252q180 0 247 -76q59 -66 60 -182q0 -209 -182 -246l194 -418h-121l-188 406h-152v-406h-110zM694 764h160q96 0 137 37t41 125q0 90 -41 123q-43 35 -151 34h-146v-319z" />
<glyph unicode="&#xaf;" horiz-adv-x="555" d="M39 1192v127h477v-127h-477z" />
<glyph unicode="&#xb4;" horiz-adv-x="555" d="M49 1143l230 287h227l-348 -287h-109z" />
<glyph unicode="&#xb8;" horiz-adv-x="555" d="M135 -143l84 143h49l-49 -96q25 6 60 6q141 -4 141 -131q0 -80 -68 -127q-57 -41 -141 -41l-76 6v55q45 -4 66 -4q115 0 114 82q0 76 -102 76q-37 0 -78 -21v52z" />
<glyph unicode="&#xbb;" horiz-adv-x="768" d="M74 342l202 317l-202 289l96 64l244 -353l-244 -378zM350 342l203 317l-203 289l99 64l241 -353l-241 -378z" />
<glyph unicode="&#xc1;" horiz-adv-x="1323" d="M20 0l590 1446h115l575 -1446h-149l-166 436h-647l-166 -436h-152zM383 547h561l-278 739zM569 1577l203 256h217l-301 -256h-119z" />
<glyph unicode="&#xc4;" horiz-adv-x="1323" d="M20 0l590 1446h115l575 -1446h-149l-166 436h-647l-166 -436h-152zM377 1606v198h137v-198h-137zM383 547h561l-278 739zM825 1606v198h138v-198h-138z" />
<glyph unicode="&#xc9;" horiz-adv-x="1236" d="M166 0v1446h944v-125h-807v-516h731v-127h-731v-551h858v-127h-995zM528 1577l203 256h215l-301 -256h-117z" />
<glyph unicode="&#xcd;" horiz-adv-x="468" d="M143 1577l203 256h217l-303 -256h-117zM166 0v1446h137v-1446h-137z" />
<glyph unicode="&#xd3;" horiz-adv-x="1449" d="M102 727q0 367 193 576q90 96 199 139q100 41 235 41q319 0 483 -242q137 -199 136 -510q0 -338 -164 -555q-96 -123 -228 -174q-106 -39 -227 -39q-258 0 -420 168q-207 215 -207 596zM248 723q0 -350 178 -522q121 -115 297 -115q195 0 311 131q168 182 168 514 q11 293 -145 483q-61 70 -127 105q-86 45 -201 45q-246 0 -375 -209q-106 -174 -106 -432zM635 1577l203 256h215l-301 -256h-117z" />
<glyph unicode="&#xd4;" horiz-adv-x="1449" d="M102 727q0 367 193 576q90 96 199 139q100 41 235 41q319 0 483 -242q137 -199 136 -510q0 -338 -164 -555q-96 -123 -228 -174q-106 -39 -227 -39q-258 0 -420 168q-207 215 -207 596zM248 723q0 -350 178 -522q121 -115 297 -115q195 0 311 131q168 182 168 514 q11 293 -145 483q-61 70 -127 105q-86 45 -201 45q-246 0 -375 -209q-106 -174 -106 -432zM473 1581l215 252h86l213 -252h-100l-160 115l-156 -115h-98z" />
<glyph unicode="&#xda;" horiz-adv-x="1409" d="M162 776v670h135v-938q0 -152 43 -238q39 -78 125 -125q102 -55 240 -55q217 0 319 121q82 98 82 344v891h137v-658q0 -199 -4 -299q-8 -240 -113 -364q-139 -162 -419 -162q-227 0 -371 113q-63 51 -105 119q-70 123 -69 581zM610 1577l203 256h217l-303 -256h-117z" />
<glyph unicode="&#xdd;" horiz-adv-x="1280" d="M20 1446h162l447 -719l465 719h166l-566 -848v-598h-135v598zM549 1577l203 256h217l-303 -256h-117z" />
<glyph unicode="&#xe1;" horiz-adv-x="1024" d="M92 246q0 90 53 153q68 82 301 150q154 41 185 47l114 25v51q0 63 -10 94q-43 131 -223 129q-166 0 -221 -84q-33 -51 -37 -152l-133 23q23 115 57 170q100 150 326 149q211 0 299 -104q59 -70 59 -276v-314q0 -162 33 -188q29 -23 113 -23v-96q-168 0 -220 51 q-39 39 -43 127q-20 -49 -51 -84q-98 -115 -295 -114q-150 0 -233 83q-74 74 -74 183zM209 248q0 -33 18 -70q47 -92 179 -92q94 0 182 49q96 53 131 135q27 59 26 172v74l-61 -16q-367 -98 -414 -133q-61 -45 -61 -119zM426 1143l227 287h230l-348 -287h-109z" />
<glyph unicode="&#xe4;" horiz-adv-x="1024" d="M92 246q0 90 53 153q68 82 301 150q154 41 185 47l114 25v51q0 63 -10 94q-43 131 -223 129q-166 0 -221 -84q-33 -51 -37 -152l-133 23q23 115 57 170q100 150 326 149q211 0 299 -104q59 -70 59 -276v-314q0 -162 33 -188q29 -23 113 -23v-96q-168 0 -220 51 q-39 39 -43 127q-20 -49 -51 -84q-98 -115 -295 -114q-150 0 -233 83q-74 74 -74 183zM209 248q0 -33 18 -70q47 -92 179 -92q94 0 182 49q96 53 131 135q27 59 26 172v74l-61 -16q-367 -98 -414 -133q-61 -45 -61 -119zM250 1192v188h125v-188h-125zM602 1192v188h125v-188 h-125z" />
<glyph unicode="&#xe9;" d="M90 498q0 113 31 198q47 139 160 222q115 84 260 83q190 0 313 -139q127 -143 127 -344v-31h-758q-2 -92 19 -163q63 -240 313 -238q211 0 313 205l113 -33q-43 -86 -76 -127q-131 -156 -348 -156q-129 0 -225 52q-242 125 -242 471zM225 588h617q-18 168 -123 248 q-76 57 -180 57q-190 0 -277 -170q-27 -57 -37 -135zM446 1143l230 287h229l-350 -287h-109z" />
<glyph unicode="&#xed;" horiz-adv-x="425" d="M127 1143l229 287h230l-350 -287h-109zM154 0v977h118v-977h-118z" />
<glyph unicode="&#xf3;" d="M90 477q0 133 45 248q106 276 402 276q170 0 286 -108q150 -143 154 -399q0 -111 -27 -197q-100 -322 -422 -322q-213 0 -338 164q-100 139 -100 338zM219 477q0 -238 129 -338q72 -57 182 -57q129 0 211 84q104 104 107 315q2 219 -96 328q-82 90 -217 90 q-100 0 -177 -55q-139 -104 -139 -367zM446 1143l230 287h229l-350 -287h-109z" />
<glyph unicode="&#xf4;" d="M90 477q0 133 45 248q106 276 402 276q170 0 286 -108q150 -143 154 -399q0 -111 -27 -197q-100 -322 -422 -322q-213 0 -338 164q-100 139 -100 338zM219 477q0 -238 129 -338q72 -57 182 -57q129 0 211 84q104 104 107 315q2 219 -96 328q-82 90 -217 90 q-100 0 -177 -55q-139 -104 -139 -367zM248 1143l260 282h55l275 -282h-105l-203 133l-182 -133h-100z" />
<glyph unicode="&#xfa;" d="M154 498v479h122v-506q0 -174 17 -238q39 -143 203 -143q152 0 231 109q66 90 66 350v428h120v-977h-120v176q-20 -45 -39 -72q-92 -127 -273 -127q-59 0 -114 19q-139 45 -187 188q-27 88 -26 314zM446 1143l230 287h229l-350 -287h-109z" />
<glyph unicode="&#xfd;" horiz-adv-x="894" d="M23 -334q68 -47 127 -47q47 0 75 35q18 25 56 113l38 92l52 141l-338 977h117l284 -832l318 832h122l-440 -1118q-86 -217 -117 -265q-61 -90 -165 -90q-74 0 -129 39v123zM362 1143l228 287h229l-348 -287h-109z" />
<glyph unicode="&#x10c;" horiz-adv-x="1366" d="M102 715q0 375 179 581q74 88 188 142q104 45 250 45q133 0 237 -37q209 -72 324 -338l-139 -70q-14 74 -60 148q-113 176 -354 176q-139 0 -223 -47q-98 -53 -166 -174q-92 -164 -92 -410q0 -141 26 -258q84 -387 478 -387q201 0 313 147q57 76 78 160l129 -78 q-86 -186 -228 -276q-121 -76 -309 -76q-311 0 -473 207q-158 197 -158 545zM362 1833h101l160 -115l157 115h97l-215 -252h-84z" />
<glyph unicode="&#x10d;" horiz-adv-x="980" d="M90 481q0 111 31 203q100 317 438 317q180 0 285 -108q59 -61 86 -137l-113 -27q-66 164 -264 164q-119 0 -203 -72q-129 -111 -129 -334q0 -193 92 -305q41 -45 97 -71q57 -29 133 -29q176 0 264 164l123 -29q-43 -90 -107 -145q-106 -96 -284 -97q-182 0 -299 111 q-150 141 -150 395zM199 1425h104l201 -133l184 133h100l-260 -282h-55z" />
<glyph unicode="&#x10f;" d="M90 489q0 315 211 449q92 59 211 59q133 0 217 -77q43 -41 66 -99v625h118v-1446h-118v176q-70 -199 -301 -199q-113 0 -203 62q-201 131 -201 450zM221 489q0 -119 35 -210q70 -186 256 -187q117 0 190 74q90 94 95 315q2 271 -117 357q-72 49 -162 49q-74 0 -127 -29 q-170 -92 -170 -369zM920 1446h129l-41 -371h-47z" />
<glyph unicode="&#x13d;" horiz-adv-x="1150" d="M166 0v1446h139v-1319h799v-127h-938zM369 1446h129l-41 -371h-47z" />
<glyph unicode="&#x13e;" horiz-adv-x="425" d="M152 0v1446h122v-1446h-122zM285 1448h129l-41 -371h-47z" />
<glyph unicode="&#x147;" horiz-adv-x="1449" d="M166 0v1446h135l858 -1237l-10 1237h135v-1446h-135l-848 1249v-1249h-135zM362 1833h101l160 -115l157 115h97l-215 -252h-84z" />
<glyph unicode="&#x148;" d="M154 0v977h120v-174q20 61 70 108q90 86 238 86q221 0 297 -168q35 -74 34 -321v-508h-120v508q0 209 -23 266q-23 55 -74 84q-51 31 -133 31q-72 0 -129 -27q-115 -55 -147 -186q-12 -57 -13 -248v-428h-120zM201 1425h104l201 -133l184 133h101l-261 -282h-55z" />
<glyph unicode="&#x160;" horiz-adv-x="1236" d="M100 365l138 71q0 -180 124 -272q109 -82 285 -80q188 2 295 98q92 82 96 201q4 188 -213 268q-49 18 -219 62q-141 35 -221 73q-217 109 -211 334q6 188 158 283q121 76 305 80q406 8 512 -318l-127 -69q-29 86 -61 131q-109 143 -314 143q-84 2 -168 -29 q-170 -61 -172 -225q-2 -170 199 -242q61 -23 217 -59q129 -31 213 -70q250 -117 242 -362q-5 -109 -60 -193q-143 -227 -477 -227q-383 0 -508 293zM362 1833h101l160 -115l157 115h97l-215 -252h-84z" />
<glyph unicode="&#x161;" horiz-adv-x="937" d="M70 238l118 43q8 -33 23 -58q74 -137 252 -137q123 0 188 57q59 51 60 133q0 127 -201 175q-201 43 -250 67q-127 63 -129 205q-4 119 82 195q94 86 272 83q289 -2 342 -221l-114 -30q-10 41 -29 65q-59 78 -205 80q-236 2 -229 -168q4 -113 205 -154l100 -20 q268 -61 272 -270q5 -119 -79 -205q-100 -102 -285 -103q-281 0 -393 263zM170 1425h104l201 -133l184 133h101l-260 -282h-56z" />
<glyph unicode="&#x164;" horiz-adv-x="1110" d="M31 1325v121h1048v-121h-456v-1325h-138v1325h-454zM293 1833h100l160 -115l158 115h96l-215 -252h-84z" />
<glyph unicode="&#x165;" horiz-adv-x="598" d="M31 874v103h205v416h116v-416h215v-103h-215v-643q-4 -143 80 -143q49 0 135 62v-123q-66 -45 -155 -45q-23 0 -33 2q-100 8 -129 86q-14 37 -14 194v610h-205zM383 1393h129l-41 -371h-47z" />
<glyph unicode="&#x17d;" horiz-adv-x="1193" d="M59 0v90l891 1233h-837v123h1022v-94l-881 -1229h868v-123h-1063zM362 1833h101l160 -115l157 115h97l-215 -252h-84z" />
<glyph unicode="&#x17e;" horiz-adv-x="811" d="M57 0v76l529 796h-484v105h654v-72l-529 -796h543v-109h-713zM145 1425h105l201 -133l184 133h100l-260 -282h-55z" />
<glyph unicode="&#x2c6;" horiz-adv-x="555" d="M-18 1143l262 282h53l276 -282h-104l-201 133l-182 -133h-104z" />
<glyph unicode="&#x2dc;" horiz-adv-x="555" d="M-43 1208q29 70 53 103q61 80 140 78q55 0 161 -58q70 -37 103 -37q20 0 41 11q29 14 59 77l84 -20q-57 -129 -121 -164q-41 -20 -74 -20q-55 2 -178 65q-70 33 -88 33q-20 0 -37 -10q-25 -14 -55 -76z" />
<glyph unicode="&#x2000;" horiz-adv-x="916" />
<glyph unicode="&#x2001;" horiz-adv-x="1833" />
<glyph unicode="&#x2002;" horiz-adv-x="916" />
<glyph unicode="&#x2003;" horiz-adv-x="1833" />
<glyph unicode="&#x2004;" horiz-adv-x="611" />
<glyph unicode="&#x2005;" horiz-adv-x="458" />
<glyph unicode="&#x2006;" horiz-adv-x="305" />
<glyph unicode="&#x2007;" horiz-adv-x="305" />
<glyph unicode="&#x2008;" horiz-adv-x="229" />
<glyph unicode="&#x2009;" horiz-adv-x="366" />
<glyph unicode="&#x200a;" horiz-adv-x="101" />
<glyph unicode="&#x2010;" horiz-adv-x="698" d="M78 541v123h543v-123h-543z" />
<glyph unicode="&#x2011;" horiz-adv-x="698" d="M78 541v123h543v-123h-543z" />
<glyph unicode="&#x2012;" horiz-adv-x="698" d="M78 541v123h543v-123h-543z" />
<glyph unicode="&#x2013;" horiz-adv-x="1157" d="M78 541v123h1001v-123h-1001z" />
<glyph unicode="&#x2014;" horiz-adv-x="1726" d="M78 541v123h1571v-123h-1571z" />
<glyph unicode="&#x2018;" horiz-adv-x="342" d="M90 885v190q0 231 94 371l66 -45q-78 -129 -78 -277h78v-239h-160z" />
<glyph unicode="&#x2019;" horiz-adv-x="342" d="M90 932q78 125 78 276h-78v238h162v-201q0 -219 -94 -360z" />
<glyph unicode="&#x201a;" horiz-adv-x="342" d="M90 0v238h162v-201q0 -221 -94 -361l-68 48q78 125 78 276h-78z" />
<glyph unicode="&#x201c;" horiz-adv-x="598" d="M90 885v190q0 229 94 371l68 -45q-80 -98 -80 -277h80v-239h-162zM346 885v227q0 195 94 334l68 -45q-78 -125 -78 -277h78v-239h-162z" />
<glyph unicode="&#x201d;" horiz-adv-x="598" d="M90 932q78 125 78 276h-78v238h162v-205q0 -186 -53 -287q-6 -12 -21 -34q-14 -23 -20 -35zM346 932q6 6 33 55q45 90 45 221h-78v238h162v-246q0 -174 -94 -315z" />
<glyph unicode="&#x201e;" horiz-adv-x="598" d="M90 0v238h162v-207q0 -184 -53 -285q-6 -12 -21 -35q-14 -23 -20 -35l-68 48q78 125 78 276h-78zM346 0v238h162v-246q0 -170 -94 -316l-68 48q6 6 33 55q45 92 45 221h-78z" />
<glyph unicode="&#x2026;" horiz-adv-x="2048" d="M256 0v168h168v-168h-168zM938 0v168h170v-168h-170zM1622 0v168h170v-168h-170z" />
<glyph unicode="&#x202f;" horiz-adv-x="366" />
<glyph unicode="&#x2039;" horiz-adv-x="512" d="M88 633l244 379l96 -62l-203 -317l203 -289l-96 -63z" />
<glyph unicode="&#x203a;" horiz-adv-x="512" d="M84 342l203 317l-203 289l96 64l244 -353l-244 -378z" />
<glyph unicode="&#x205f;" horiz-adv-x="458" />
<glyph unicode="&#x20ac;" horiz-adv-x="1298" d="M43 555l41 109h106q0 39 5 120h-152l39 109h125q33 254 194 403q166 152 420 152q285 0 436 -178l-55 -135q-121 197 -401 196q-193 0 -312 -127q-109 -113 -143 -311h766l-39 -109h-737q-4 -20 -4 -59q0 -41 2 -61h692l-39 -109h-645q27 -213 145 -338 q127 -135 334 -135q256 0 391 164v-158q-174 -125 -403 -125q-264 0 -426 166q-152 158 -184 426h-156z" />
<glyph unicode="&#x2122;" horiz-adv-x="1398" d="M45 1362v84h504v-84h-201v-596h-98v596h-205zM625 766v680h137l176 -557l174 557h139v-680h-94l4 584l-182 -584h-86l-182 582l8 -582h-94z" />
<glyph unicode="&#xe000;" horiz-adv-x="972" d="M0 0v973h973v-973h-973z" />
</font>
</defs>
</svg>
